<?xml version="1.0" encoding="utf-8"?>
<!-- Generator: Adobe Illustrator 23.0.3, SVG Export Plug-In . SVG Version: 6.00 Build 0)  -->
<svg version="1.1" xmlns="http://www.w3.org/2000/svg" xmlns:xlink="http://www.w3.org/1999/xlink" x="0px" y="0px"
	 viewBox="0 0 566.93 566.93" style="enable-background:new 0 0 566.93 566.93;" xml:space="preserve">
<style type="text/css">
	.st0{display:none;fill:#FFFFFF;}
	.st1{display:none;}
	.st2{font-family:'Impact';}
	.st3{font-size:162.4437px;}
	.st4{display:none;fill:none;stroke:#000000;stroke-width:6;stroke-miterlimit:10;}
</style>
<g id="レイヤー_1">
	<circle class="st0" cx="291.47" cy="289.25" r="183.1"/>
	<g>
		<text transform="matrix(1 6.840000e-03 -6.840000e-03 1 294.0808 407.4437)" class="st1 st2 st3">C</text>
		
			<rect x="124.11" y="124.82" transform="matrix(1 6.836624e-03 -6.836624e-03 1 1.9484 -1.9303)" class="st4" width="318.4" height="318.4"/>
		<g>
			<path d="M300.08,197.53c0.53-33.04-22.45-42.35-22.45-42.35c3.96,17.51,0.06,26.82-2.64,30.08c-2.96-0.59-6.15-0.92-9.63-0.92
				l-51.22-0.01c-2.84,0-5.49,0.23-7.98,0.65c-8.43-10.25-3.18-30.02-3.18-30.02s-22.32,6.68-22.57,43.62
				c-0.01,1.88,0,177.75,0,177.75c1.98,21.81,13.21,32.72,33.7,32.72l53.2,0.01c19.83,0,30.73-10.9,32.72-32.71L300.08,197.53z
				 M262.36,373.37c0,3.54-0.35,6.49-0.99,8.97c-0.78-3.18-2.9-6.73-7.28-11.5c0,0,0.52,13.92-7.29,18.3l-7.12-9.66l-7,9.93
				c0,0-6.33-4.03-5.06-18.53c0,0-5.06,3.63-7.48,10.31c-0.5-2.23-0.75-4.83-0.75-7.82l0.02-156.31c0-2.81,0.23-5.27,0.69-7.37
				c1.04,2.61,2.95,5.7,6.29,9.35c0,0-1.48-13.18,6.96-17.63l7.01,9.45l7.89-8.93c0,0,6.87,2.09,5.59,16.58
				c0,0,5.36-3.35,7.48-10.34c0.68,2.43,1.05,5.35,1.05,8.9L262.36,373.37z"/>
			<g>
				<circle class="st0" cx="357.67" cy="219.78" r="35.37"/>
				<path d="M357.74,257.72c-2.91,0-5.84-0.34-8.74-1.02c-20.36-4.78-33.03-25.24-28.25-45.59c4.78-20.36,25.24-33.03,45.59-28.25
					c9.86,2.32,18.23,8.33,23.57,16.94c5.34,8.61,7,18.78,4.68,28.65l0,0c-2.32,9.86-8.33,18.23-16.94,23.57
					C371.57,255.79,364.71,257.72,357.74,257.72z M357.61,186.96c-6.03,0-11.96,1.67-17.22,4.93c-7.45,4.62-12.65,11.85-14.66,20.39
					c-4.14,17.61,6.82,35.3,24.44,39.44c8.53,2.01,17.33,0.56,24.78-4.05c7.45-4.62,12.65-11.86,14.66-20.39l0,0
					c2-8.53,0.57-17.33-4.05-24.78c-4.62-7.45-11.85-12.65-20.39-14.66C362.66,187.26,360.12,186.96,357.61,186.96z"/>
			</g>
			<path d="M334.26,246.46c14.74,12.82,37.08,11.26,49.89-3.47c12.82-14.74,11.26-37.08-3.47-49.89L334.26,246.46z"/>
			<g>
				<path d="M400.42,328.46l-35.84,0.09l-0.06-23.95c-0.02-6.96-0.41-11.31-1.18-13.04c-0.77-1.73-2.46-2.59-5.07-2.58
					c-2.95,0.01-4.82,1.06-5.61,3.16c-0.79,2.1-1.18,6.64-1.16,13.62l0.16,64.02c0.02,6.7,0.43,11.07,1.22,13.1
					c0.8,2.04,2.59,3.06,5.37,3.05c2.67-0.01,4.41-1.03,5.22-3.09c0.82-2.05,1.22-6.86,1.2-14.42l-0.04-17.32l35.84-0.09l0.01,5.37
					c0.04,14.27-0.95,24.38-2.95,30.36c-2,5.97-6.44,11.21-13.33,15.72c-6.89,4.51-15.38,6.77-25.48,6.8
					c-10.5,0.03-19.16-1.85-25.98-5.64c-6.82-3.79-11.35-9.04-13.57-15.76c-2.23-6.72-3.37-16.83-3.4-30.34l-0.1-40.27
					c-0.02-9.93,0.3-17.38,0.97-22.35c0.67-4.97,2.68-9.75,6.05-14.36c3.36-4.6,8.04-8.23,14.02-10.89
					c5.98-2.65,12.86-3.99,20.63-4.01c10.56-0.03,19.27,1.99,26.15,6.06c6.88,4.06,11.4,9.14,13.58,15.23
					c2.17,6.09,3.27,15.56,3.3,28.43L400.42,328.46z"/>
			</g>
		</g>
	</g>
	<path d="M288.89,472.17c-104.31,0-189.17-84.86-189.17-189.17S184.58,93.83,288.89,93.83S478.06,178.69,478.06,283
		S393.2,472.17,288.89,472.17z M288.89,109.8c-95.5,0-173.2,77.7-173.2,173.2s77.7,173.2,173.2,173.2c95.5,0,173.2-77.7,173.2-173.2
		S384.39,109.8,288.89,109.8z"/>
</g>
<g id="レイヤー_2">
</g>
</svg>
